<svg xmlns="http://www.w3.org/2000/svg" width="207" height="148" viewBox="0 0 207 148">
    <g fill="none" fill-rule="evenodd">
        <path fill="#B28B67" d="M44.197 21.099c-1.888-1.66-3.311-3.818-3.492-6.436-.52-7.542 10.2-7.373 12.77-3.89 2.57 3.482 3.67 13.076 1.128 14.12-1.014.417-3.346.074-5.818-.968l2.842 9.833-8.45 1.188 1.02-13.847z"/>
        <path fill="#191847" d="M49.56 7.136c-1.204-.186-2.897-.07-3.59.11a6.037 6.037 0 0 0 .001-3.107c-.267-.987-.84-1.778-1.384-2.615-.251-.385-.527-.765-.898-1.035A2.551 2.551 0 0 0 42.406.02a3.253 3.253 0 0 0-1.375.192c-.194.07-.36.186-.55.264-.193.08-.308-.031-.47-.136-.394-.252-.93-.329-1.382-.32a3.44 3.44 0 0 0-1.466.387c-.44.223-.849.542-1.13.963a2.082 2.082 0 0 0-.293.618c-.024.09-.023.142-.105.186-.076.04-.17.054-.248.094a3.241 3.241 0 0 0-1.618 1.923c-.152.488-.141 1.308.014 2.207.155.9 1.309 3.14 2.199 3.891.795.67 1.875 1.035 2.88 1.12-.543.823-.845 1.8-1.032 2.775a12.647 12.647 0 0 0-.199 3.223c.068 1.028.212 2.105.593 3.067.356.899.945 1.595 1.816 1.967.4.17.82.281 1.24.378.413.095.827.185 1.25.212.801.05 1.694-.104 2.207-.802a4.28 4.28 0 0 0 .504-.856c.043-.105.068-.173-.014-.259-.099-.102-.245-.17-.363-.245a3.029 3.029 0 0 1-1.353-1.84c-.21-.804-.137-1.89.615-2.36.927-.579 2.089-.227 3.034.12.19-1.36.793-2.645 1.912-3.414 1.238-.85 2.755-1.143 4.044-1.905.335-.198.675-.418.895-.757.092-.142.198-.324.218-.497.027-.228-.142-.392-.277-.547-.712-.826-3.189-2.347-4.392-2.534z"/>
        <path fill="#997659" d="M46.367 62.993l26.502 43.997 19.87 37.195h4.28L63.726 62.993z"/>
        <path fill="#E4E4E4" d="M90.12 142.435c-.391 1.01-.587 1.767-.587 2.274 0 .63.11 1.552.33 2.763h20.681c.538-1.696.228-2.612-.93-2.747-1.158-.135-2.12-.257-2.886-.366l-9.59-4.081a.4.4 0 0 0-.524.21l-.604 1.397c-1.072.478-1.943.716-2.613.716-.536 0-1.274-.203-2.213-.61a.8.8 0 0 0-1.064.444z"/>
        <path fill="#DB2721" d="M87.22 138.23l8.254-2.48c-3.616-10.734-8.048-22.546-13.296-35.437-5.248-12.891-10.884-25.331-16.908-37.32H41.96c6.697 15.165 13.798 28.945 21.3 41.34 7.504 12.394 15.49 23.693 23.96 33.896z"/>
        <path fill="#B28B67" d="M44.625 62.993c-2.501 15.46-7.326 35.214-7.781 35.823-.304.406-11.23 4.042-32.782 10.908l.925 3.747c25.7-3.682 39.24-6.538 40.624-8.57 2.075-3.047 12.436-27.117 16.449-41.908H44.625z"/>
        <path fill="#FF4133" d="M11.638 106.484l1.628 6.036c19.222 1.674 31 .464 35.333-3.629 4.333-4.093 9.272-19.393 14.816-45.898H41.187c-3.512 21.704-5.476 33.012-5.891 33.923-.415.912-8.301 4.1-23.658 9.568z"/>
        <path fill="#E4E4E4" d="M5.163 108.087c-1.061-.21-1.841-.271-2.34-.183a99900981460760750 99900981460760750 0 0 1 3.33 16.873l2.354-10.154a.4.4 0 0 0-.297-.48l-1.482-.352c-.657-.972-1.043-1.789-1.16-2.449-.092-.528-.02-1.29.218-2.284a.8.8 0 0 0-.623-.971z"/>
        <g>
            <path fill="#997659" d="M60.134 40.049l11.334-8.35c1.704-2.677 3.453-4.815 5.247-6.415.57-.334 1.607-.633.86 1.238-.745 1.87-1.444 3.872-.865 4.334.579.463 1.73-.459 2.457.343.483.535-1.533 1.77-6.048 3.706l-7.782 9.302-5.203-4.158zm19.996 2.89l4.978-3.676c.357-2.944 1.06-4.498 2.11-4.664.755-.484-.148 3.299 1.34 2.773 1.487-.526 4.839-3.793 5.56-3.327 1.07.69.575 3.338-.249 4.736-1.54 2.614-2.976 3.636-6.656 5.227-1.924.831-3.933 2.239-6.026 4.222l-1.057-5.29z"/>
            <path fill="#2026A2" d="M53.952 39.412c4.29-.649 9.894-2.349 15.47-7.035l3.142 4.943c-3.637 4.72-9.089 8.945-14.293 9.53-4.102.461-6.875-4.12-4.319-7.438z"/>
            <path fill="#1F28CF" d="M60.928 47.068c4.718.48 12.181-1.917 22.388-7.194 3.427 5.06 5.202 8.76 5.327 11.103-8.544 6.04-16.14 9.265-22.624 10.319.741 3.777.78 7.465-.332 10.996-2.288 7.26-22.168 3.628-28.38 5.766-5.8-12.25 1.201-18.543.055-26.741-1.254-8.979 4.111-23.824 5.187-23.975l9.805-1.378c1.505 6.78 5.29 13.953 8.574 21.104z"/>
        </g>
        <g>
            <path fill="#B28B67" d="M156.914 19.912c1.394-2.092 2.21-4.545 1.707-7.12-1.449-7.42-11.76-4.483-13.34-.454-1.582 4.029-.162 13.582 2.564 13.932 1.087.14 3.251-.795 5.369-2.44l-.2 10.233 8.47-1.04-4.57-13.111z"/>
            <path fill="#191847" d="M157.772 21.517c.488-4.818 3.124-8.385 2.404-10.423-.48-1.359-1.408-2.126-2.785-2.303-1.03-2.684-3.403-3.588-7.116-2.712-5.57 1.313-8.73 4.06-6.615 8.99 1.368-.167 2.96-.86 5.346-.3.758.177 1.377.94 1.86 2.288l1.031-.126c.8-1.769 1.713-2.495 2.74-2.178 1.027.316 1.379 1.349 1.054 3.097l.983 3.802 1.098-.135z"/>
            <path fill="#B28B67" d="M171.397 62.993c-.643 8.716-42.073 34.376-42.315 35.096-.108.32 4.191 10.435 12.896 30.346l-3.622 1.397c-13.351-21.086-19.684-32.753-18.998-35 .981-3.217 11.697-13.799 32.145-31.747l19.894-.092z"/>
            <path fill="#2F3676" d="M141.025 123.938l-5.913 2.138c-12.469-13.97-17.356-25.495-16.465-31.368.594-3.915 11.273-14.48 32.035-31.694h21.139c-.721 20.185-39.122 35.152-39.636 36.012-.513.86 4.541 9.285 8.84 24.912z"/>
            <path fill="#E4E4E4" d="M143.296 127.693c.712.814 1.155 1.46 1.329 1.936.216.593.427 1.496.634 2.709l-19.433 7.073c-1.085-1.41-1.107-2.376-.065-2.9 1.042-.522 1.904-.966 2.586-1.33l7.617-7.116a.4.4 0 0 1 .563.018l1.046 1.108c1.17.082 2.07.008 2.7-.221.504-.184 1.128-.627 1.87-1.33a.8.8 0 0 1 1.153.053z"/>
            <path fill="#997659" d="M166.633 62.993l18.456 43.997 18.14 37.195h-4.28l-46.823-81.192z"/>
            <path fill="#E4E4E4" d="M203.486 142.435c.392 1.01.587 1.767.587 2.274 0 .63-.11 1.552-.33 2.763h-20.68c-.538-1.696-.228-2.612.93-2.747 1.158-.135 2.12-.257 2.885-.366l9.591-4.081a.4.4 0 0 1 .524.21l.604 1.397c1.072.478 1.943.716 2.613.716.536 0 1.274-.203 2.212-.61a.8.8 0 0 1 1.064.444z"/>
            <path fill="#5C63AB" d="M201.59 136.458l-9.509 1.771c-7.352-10.734-38.124-54.747-41.498-75.236h21.17c11.267 14.811 22.83 62.554 29.838 73.465z"/>
            <g>
                <path fill="#B28B67" d="M134 56.249l-13.517-3.984c-2.52-1.934-4.897-3.347-7.132-4.239-.65-.12-1.727-.048-.384 1.456s2.687 3.146 2.302 3.778c-.386.633-1.785.159-2.192 1.16-.27.667 2.048 1.141 6.956 1.422l10.504 6.089L134 56.249zm52.075-4.84l-7.083 2.312c8.946 12.521 13.734 19.152 14.363 19.892 1.414 1.665.71 5.122.513 6.92 2.65.276 1.164-3.425 4.523-3.027 3.066.364 5.82 1.925 8.285-.939.303-.352.434-1.352-.79-1.707-3.051-.883-7.618-2.678-8.423-3.493-1.098-1.112-4.894-7.765-11.388-19.958z"/>
                <path fill="#DB2721" d="M155.801 27.937l-3.127-.143c-5.887 7.203-6.726 22.872-10.923 25.448-3.968 2.435-10.154 1.31-17.545-.328l-1.582 5.046c7.279 6.078 21.7 10.196 26.851 6.202 8.235-6.387 7.963-25.553 6.326-36.225z"/>
                <path fill="#DDE3E9" d="M173.814 64.263l-27.1 3.328c-1.239.152-1.222-1.64-1.152-2.553.805-10.525 7.51-22.588 5.715-37.21l7.668-2.168c7.726 9.463 11.512 21.817 14.87 38.603z"/>
                <path fill="#FF4133" d="M175.24 53.531c6.732 9.152 12.245 15.658 16.538 19.52l5.546-1.794c-6.407-21.935-19.032-37.155-37.874-45.66l-.09.012-3.005.369c-4.12 24.457-4.125 40.417-.013 47.878l24.395-2.995c-1.091-5.695-3.075-11.616-5.497-17.33z"/>
            </g>
        </g>
        <g transform="rotate(-14 76.952 -272.933)">
            <path fill="#C5CFD6" d="M20.331 21.843l-.003.006c.002-.002.003-.01.003-.006"/>
            <path fill="#C5CFD6" d="M20.33 21.846l-.001.002c0-.002.004-.008 0-.002M20.343 21.812l-.01.023.005-.01a2.2 2.2 0 0 1 .005-.013M20.334 21.836l-.005.011.005-.011M20.33 21.846zM20.33 21.846v-.001M20.328 21.849c-.003.005.01-.019 0 0M20.33 21.846v-.001"/>
            <rect width="40" height="26.4" x=".23" y=".327" fill="#2B44FF" rx="1.6"/>
            <g fill="#000" fill-opacity=".2">
                <path d="M15.348 8.037l-11.536 18.8h23.072z"/>
                <path d="M27.242 13.073L17.043 26.837h20.398z"/>
            </g>
            <circle cx="31.607" cy="9.457" r="3.8" fill="#FFF"/>
        </g>
    </g>
</svg>
