<svg xmlns="http://www.w3.org/2000/svg" width="263" height="124" viewBox="0 0 263 124">
    <g fill="none" fill-rule="evenodd">
        <path d="M0 0h262v124H0z"/>
        <g fill="#C2D1D9">
            <path d="M85.831 86.62l-17.15-9.901a5.355 5.355 0 0 1-2.677-4.638V52.278a5.355 5.355 0 0 1 2.677-4.638l17.15-9.901a5.355 5.355 0 0 1 5.355 0l17.15 9.901a5.355 5.355 0 0 1 2.678 4.638v19.803a5.355 5.355 0 0 1-2.678 4.638l-17.15 9.901a5.355 5.355 0 0 1-5.355 0zM91.7 75.14c-2.437-2.696-2.934-5.242.764-8.583h-.01a5.878 5.878 0 0 0 0-8.754h.01c-3.698-3.342-3.2-5.888-.764-8.584h-.007a4.28 4.28 0 0 0 1.116-2.883 4.3 4.3 0 0 0-8.6 0 4.28 4.28 0 0 0 1.116 2.883h-.007c2.436 2.696 2.933 5.242-.765 8.584h.01a5.877 5.877 0 0 0 0 8.754h-.01c3.698 3.341 3.201 5.887.765 8.583h.007a4.28 4.28 0 0 0-1.117 2.884 4.3 4.3 0 1 0 8.601 0 4.28 4.28 0 0 0-1.116-2.884h.007zm-11.8-8.669c-1.287-1.425-2.024-2.81-1.895-4.291-.13-1.482.608-2.867 1.896-4.292h-.007a4.28 4.28 0 0 0 1.117-2.884 4.3 4.3 0 1 0-8.601 0 4.28 4.28 0 0 0 1.116 2.884h-.007c1.289 1.425 2.026 2.81 1.896 4.292.13 1.481-.607 2.866-1.896 4.291h.007a4.28 4.28 0 0 0-1.116 2.884 4.3 4.3 0 1 0 8.6 0 4.28 4.28 0 0 0-1.116-2.884h.007zm23.598 0c-1.288-1.425-2.025-2.81-1.895-4.291-.13-1.482.607-2.867 1.895-4.292h-.006a4.28 4.28 0 0 0 1.116-2.884 4.3 4.3 0 1 0-8.601 0 4.28 4.28 0 0 0 1.116 2.884h-.006c1.288 1.425 2.025 2.81 1.895 4.292.13 1.481-.607 2.866-1.895 4.291h.006a4.28 4.28 0 0 0-1.116 2.884 4.3 4.3 0 1 0 8.601 0 4.28 4.28 0 0 0-1.116-2.884h.006zM125.421 52.845v12.788c0 .845.329 1.338 1.009 1.338.47 0 .892-.165 1.314-.376l.164 2.605c-.563.235-1.619.54-2.769.54-1.83 0-3.003-.892-3.003-3.309V52.845h3.285M141.682 65.727c0 .704.188 1.244.845 1.244.47 0 .845-.165 1.244-.376l.14 2.605c-.61.282-1.619.54-2.675.54-1.384 0-2.252-.564-2.604-1.784a5.103 5.103 0 0 1-3.896 1.76c-3.425 0-5.749-2.628-5.749-6.312 0-3.731 2.324-6.383 5.75-6.383 1.595 0 2.839.446 3.66 1.267v-1.055h3.285v8.494zm-3.285-4.74c-.563-.587-1.642-1.103-2.745-1.103-2.042 0-3.332 1.408-3.332 3.52 0 2.065 1.314 3.473 3.332 3.473 1.08 0 2.088-.493 2.745-1.103v-4.787zM152.875 69.74c-1.666 0-2.863-.517-3.684-1.338v1.103h-3.285v-16.66h3.285v5.42c.845-.75 2.112-1.244 3.684-1.244 3.45 0 5.773 2.628 5.773 6.336s-2.323 6.383-5.773 6.383zm-.915-9.856c-1.103 0-2.135.516-2.769 1.15v4.717c.563.563 1.62 1.126 2.77 1.126 2.017 0 3.331-1.408 3.331-3.52 0-2.088-1.314-3.473-3.332-3.473zM166.837 56.904c3.848 0 6.617 2.769 6.617 6.5 0 3.684-2.769 6.43-6.617 6.43-3.801 0-6.57-2.746-6.57-6.43 0-3.731 2.769-6.5 6.57-6.5zm0 9.926c2.065 0 3.45-1.502 3.45-3.426 0-1.971-1.385-3.496-3.45-3.496-2.018 0-3.402 1.525-3.402 3.496 0 1.924 1.384 3.426 3.402 3.426zM176.81 61.034c0-.727-.165-1.244-.845-1.244-.493 0-1.056.235-1.244.352l-.14-2.581c.164-.164 1.384-.54 2.674-.54 1.408 0 2.324.564 2.676 1.854.586-1.15 1.478-1.854 3.073-1.854 1.15 0 2.042.423 2.206.704l-.47 2.957c-.187-.258-1.125-.634-2.252-.634-1.572 0-2.182 1.361-2.393 2.793v6.664h-3.285v-8.471M197.882 68.167c-1.268 1.033-3.074 1.667-5.163 1.667-4.623 0-6.688-2.816-6.688-6.43 0-3.66 2.535-6.5 6.477-6.5 3.731 0 5.49 2.276 5.49 5.115 0 .751-.116 1.925-.257 2.394h-8.33c.305 1.713 1.407 2.675 3.402 2.675 1.549 0 2.98-.633 3.825-1.267l1.244 2.346zm-3.028-6.71c0-.986-.75-1.831-2.416-1.831-1.76 0-2.699 1.056-2.934 2.253h5.327c.023-.118.023-.305.023-.423z"/>
        </g>
    </g>
</svg>
