<svg xmlns="http://www.w3.org/2000/svg" width="124" height="173" viewBox="0 0 124 173">
    <g fill="none" fill-rule="evenodd">
        <path fill="#D4A181" d="M57.705 29.196c-1.843-2.163-3.09-4.815-2.882-7.786.6-8.56 12.516-6.677 14.834-2.356 2.318 4.32 2.043 15.28-.953 16.051-1.195.308-3.74-.446-6.33-2.007L64 44.6h-9.6l3.305-15.404z"/>
        <path fill="#191847" d="M64.186 14.074c-1.266-.207-4.672-.35-5.3-.35-.402 0-.837.092-1.075-.277-.195-.302-.123-.812-.182-1.163a16.936 16.936 0 0 0-.26-1.209 12.296 12.296 0 0 0-1.277-3.243c-1.095-1.911-2.7-3.408-4.725-4.279-2.237-.962-4.769-1.182-7.175-.987-2.575.209-4.906 1.059-7.337 1.859-2.317.762-4.743 1.062-7.166.69-2.442-.375-4.286-1.698-6.346-2.954C21.235.875 18.826.034 16.334.228c-2.326.18-4.47 1.14-6.394 2.424-1.8 1.2-3.285 2.645-4.123 4.678-.902 2.186-.901 4.587.582 6.52 2.15 2.8 6.141 3.525 9.461 3.453a18.077 18.077 0 0 0 5.62-1.03c2.419-.85 4.508-2.292 6.77-3.462 1.063-.549 2.16-1 3.31-1.324 1.116-.315 2.216-.46 3.227.214 1.069.714 2.027 1.414 3.25 1.861 1.173.428 2.416.668 3.666.658 2.432-.018 4.83-.776 7.192-1.284 1.927-.414 3.988-.826 5.952-.428.82.166 2.016.508 2.312 1.36-4.981.903-6.938 7.064-5.533 11.587.758 2.441 5.314 5.295 7.086 4.011 1.122-.813.44-1.88 0-2.585-.845-1.349-1.134-3.082.429-4.022 1.348-.81 2.765 1.114 2.792 1.112.37-.03 3.571-1.84 5.777-4.481 2.175.129 2.505-1.306 1.986-2.48-.52-1.172-3.762-2.649-5.51-2.936z"/>
        <path fill="#D4A181" d="M52 77.624l29.723 49.174 22.283 41.571h4.8L71.469 77.624z"/>
        <path fill="#E4E4E4" d="M101.071 166.556c-.447 1.195-.671 2.088-.671 2.682 0 .72.12 1.773.36 3.157h22.561c.586-1.938.248-2.984-1.015-3.139a124.946 124.946 0 0 1-3.148-.418l-10.486-4.675a.4.4 0 0 0-.533.213l-.674 1.635c-1.169.545-2.12.818-2.85.818-.594 0-1.415-.24-2.461-.72a.8.8 0 0 0-1.083.447z"/>
        <path fill="#C5CFD6" d="M97.817 161.712l9.256-2.77c-4.055-11.997-9.025-25.2-14.91-39.607-5.886-14.407-12.207-28.31-18.963-41.71H47.058c7.51 16.95 15.474 32.35 23.888 46.203 8.415 13.853 17.372 26.48 26.871 37.884z"/>
        <path fill="#D4A181" d="M50.047 77.624c-2.806 17.28-8.216 39.357-8.727 40.038-.34.455-12.595 4.518-36.764 12.191l1.037 4.189c28.821-4.115 44.008-7.308 45.56-9.578 2.326-3.406 13.946-30.308 18.447-46.84H50.047z"/>
        <path fill="#AFB9C5" d="M13.052 126.233l1.826 6.746c21.557 1.87 34.765.519 39.625-4.056 4.86-4.575 10.399-21.674 16.617-51.299H46.19c-3.94 24.259-6.142 36.897-6.607 37.915-.465 1.019-9.31 4.583-26.532 10.694z"/>
        <path fill="#E4E4E4" d="M5.658 128.013c-1.255-.234-2.174-.299-2.758-.196-.71.126-1.726.427-3.047.904l3.918 22.218c2.01.24 2.982-.275 2.915-1.545-.067-1.271-.112-2.329-.135-3.173l2.783-11.139a.4.4 0 0 0-.302-.487l-1.727-.38c-.74-1.057-1.174-1.945-1.301-2.665-.103-.585-.01-1.435.281-2.549a.8.8 0 0 0-.627-.988z"/>
        <g>
            <path fill="#D4A181" d="M88 66.77l14.494-6.365c2.539-2.53 4.99-4.453 7.355-5.77.707-.224 1.915-.292.626 1.59-1.289 1.882-2.56 3.92-2.044 4.58.514.66 2.006-.068 2.596 1.005.392.715-2.122 1.57-7.544 2.566L92.628 72.7 88 66.769zm-58.597 1.753l8.197 1.626c-8.243 15.362-12.664 23.504-13.262 24.426-1.346 2.074-.09 5.875.374 7.876-2.91.678-1.763-3.702-5.445-2.788-3.361.835-6.211 2.977-9.345.088-.386-.355-.668-1.465.646-2.034 3.273-1.42 8.109-4.075 8.893-5.107 1.07-1.406 4.383-9.435 9.942-24.087z"/>
            <path fill="#C1DEE2" d="M59.878 37.856l3.459-.593c7.534 7.308 10.608 24.865 15.629 27.189 4.746 2.197 11.475.071 19.474-2.8l2.45 5.473c-7.268 7.862-22.75 14.505-29.026 10.713-10.033-6.063-12.35-27.718-11.986-39.982z"/>
            <path fill="#DDE3E9" d="M44.8 81.323h30.605c1.398 0 1.135-2.02.932-3.038-2.333-11.76-11.44-24.437-11.44-41.178l-8.828-1.384c-7.302 11.743-9.827 26.202-11.269 45.6z"/>
            <path fill="#89C5CC" d="M41.748 69.416c-6.24 11.254-11.484 19.356-15.733 24.307L19.6 92.467c4.132-25.628 16.099-44.542 35.9-56.744h3.495c7.925 27.015 10.11 45.015 6.554 54H38c.436-6.575 1.833-13.528 3.748-20.307z"/>
        </g>
    </g>
</svg>
