<svg xmlns="http://www.w3.org/2000/svg" width="155" height="169" viewBox="0 0 155 169">
    <g fill="none" fill-rule="evenodd">
        <path fill="#B28B67" d="M98.203 17.745c2.039-3.001 3.236-6.519 2.51-10.207-2.088-10.627-17.13-6.386-19.448-.608-2.318 5.777-.278 19.46 3.695 19.954 1.584.197 4.743-1.15 7.835-3.515l-.323 14.664 12.352-1.517-6.621-18.771z"/>
        <path fill="#191847" d="M90.526 9.99c.314 6.47-.543 9.83-2.571 10.079-3.044.373-5.856-1.19-7.191-1.026-.974.119-.61 1.278.142 2.078.622.66 3.3 1.04 3.438 2.165.138 1.125-2.017.506-1.935 1.173.135 1.103.03 3.222 1.997 2.98 1.99-.244 7.61-1.651 8.235-4.647.404-1.934.34-5.83-.192-11.688.119-.029.241-.051.366-.066 1.705-.21 3.253.966 3.457 2.626a2.98 2.98 0 0 1-.667 2.265 46.09 46.09 0 0 0 2.81 2.767c3.2-2.437 5.034-8.644.969-13.892C98.112 2.144 95.82.922 93.246.54c-2.119-.574-4.224-.41-5.932.3-3.43.715-6.398 2.124-7.2 2.843.392 3.194 1.144 4.063 6.564 3.313 1.418.522 2.59 1.577 3.848 2.995z"/>
        <path fill="#C5CFD6" d="M145.291 102.35H82.852a6.4 6.4 0 0 0-6.4 6.4v49.696a6.4 6.4 0 0 0 6.4 6.4h62.439a6.4 6.4 0 0 0 6.4-6.4V108.75a6.4 6.4 0 0 0-6.4-6.4zm-9.531 14.112a1.6 1.6 0 0 1 1.6 1.6v31.072a1.6 1.6 0 0 1-1.6 1.6H92.383a1.6 1.6 0 0 1-1.6-1.6v-31.072a1.6 1.6 0 0 1 1.6-1.6h43.377z"/>
        <path fill="#B28B67" d="M25.265 162.842c10.12-12.239 16.968-21.312 20.544-27.22 6.121-10.115 11.131-19.116 12.712-22.554 3.77-8.2-8.68-12.038-11.497-8.214-4.265 5.788-13.373 24.002-27.324 54.642l5.565 3.346z"/>
        <path fill="#2F3676" d="M46.004 159.283l18.835-46.951c4.029-8.559-15.426-14.185-18.386-10.202-6.722 9.043-22.698 44.716-24.7 47.41l24.251 9.743z"/>
        <path fill="#B28B67" d="M95.962 149.796c-3.63-5.303-16.838-23.14-24.044-30.511a541.574 541.574 0 0 0-6.002-6.046c-5.68-5.63-17.092 3.934-11.42 9.06 14.127 12.767 34.746 29.994 36.468 31.53 2.414 2.154 7.279-.7 4.998-4.033z"/>
        <path fill="#E4E4E4" d="M94.991 147.07c1.357 1.075 2.23 1.95 2.62 2.624.45.781.974 1.998 1.57 3.651l-25.237 14.57c-1.867-1.719-2.142-3.07-.826-4.053a166.491 166.491 0 0 0 3.26-2.486l8.884-11.935a.4.4 0 0 1 .561-.08l1.868 1.403c1.649-.164 2.882-.483 3.7-.955.702-.405 1.52-1.263 2.451-2.575a.8.8 0 0 1 1.149-.163zM29.519 160.57c.638 1.61.957 2.804.957 3.583 0 .901-.155 2.217-.465 3.947H.87c-.758-2.423-.32-3.73 1.311-3.924 1.632-.193 2.987-.367 4.066-.523l13.661-5.894a.4.4 0 0 1 .527.21l.915 2.15c1.51.682 2.738 1.023 3.682 1.023.81 0 1.948-.334 3.41-1.004a.8.8 0 0 1 1.077.433z"/>
        <path fill="#5C63AB" d="M71.617 114.677c15.655-2.525 26.141-4.252 31.458-5.18 15.155-2.647 19.574-10.723 16.961-28.343H92.113c-3.695 1.056-19.135 7.592-46.32 19.606-4.89 2.404-3.98 9.493-3.086 11.829.037.095 8.282 14.086 24.737 41.973l22.842-14.41-18.712-23.777c-.494-.985-.48-1.551.043-1.698z"/>
        <g>
            <path fill="#B28B67" d="M69.767 77.805l-14.803 13.9c-4.266 1.728-7.77 3.657-10.513 5.786-.621.72-1.308 2.11 1.564 1.532 2.872-.578 5.92-1.058 6.44-.121.522.936-1.088 2.33-.116 3.561.648.82 2.922-1.715 6.822-7.608l15.29-8.634-4.684-8.416zm62.5-7.257l-10.65 1.35c9.177 20.36 14.108 31.155 14.792 32.386 1.537 2.77-.414 7.514-1.19 10.03 3.669 1.124 2.593-4.574 7.23-3.078 4.232 1.365 7.69 4.355 11.967.942.526-.42.988-1.813-.645-2.658-4.066-2.103-10.023-5.926-10.935-7.313-1.244-1.892-4.767-12.445-10.57-31.66z"/>
            <path fill="#E87613" d="M96.514 29.704l-4.502-.212c-14.63 16.093-18.027 43.976-36.32 60.772l5.56 5.37c34.26-8.564 38.83-42.627 35.262-65.93z"/>
            <path fill="#DDE3E9" d="M122.515 82.568l-39.013 4.79c-1.783.219-1.762-2.388-1.663-3.714 1.14-15.306 10.772-32.837 8.16-54.105l11.038-3.14c11.14 13.776 16.614 31.75 21.478 56.169z"/>
            <path fill="#FF9B21" d="M116.889 39.338c1.577-.669 2.737-1.92 3.48-3.753 3.205-7.901 1.22-11.791-3.34-12.59-4.56-.8-8.141 2.44-15.145 3.3-.38.046-.727.113-1.038.2l-3.498.632c-5.915 35.381-5.906 58.501.028 69.36l30.706-3.77c2.338 4.004 4.516 7.348 6.533 10.03l8.367-1.027c-2.328-25.472-11.026-46.266-26.093-62.382z"/>
            <path fill="#000" fill-opacity=".1" d="M119.243 76.004c.023 8.172-.83 14.209-2.556 18.112l11.395-1.4c-2.728-4.67-5.674-10.241-8.84-16.712z"/>
        </g>
    </g>
</svg>
