<?xml version="1.0" encoding="UTF-8"?>
<svg width="51px" height="58px" viewBox="0 0 51 58" version="1.1" xmlns="http://www.w3.org/2000/svg" xmlns:xlink="http://www.w3.org/1999/xlink">
    <!-- Generator: Sketch 50 (54983) - http://www.bohemiancoding.com/sketch -->
    <title>1-01 copy</title>
    <desc>Created with Sketch.</desc>
    <defs></defs>
    <g id="Page-1" stroke="none" stroke-width="1" fill="none" fill-rule="evenodd">
        <g id="首页" transform="translate(-695.000000, -287.000000)" fill="#FFFFFF" fill-rule="nonzero" stroke="#FFFFFF" stroke-width="2.88">
            <g id="1-01-copy" transform="translate(697.000000, 289.000000)">
                <path d="M45.8988117,38.1261044 L45.8988117,17.0357162 C46.8535313,16.4897338 47.2473606,15.3214502 46.8161543,14.3144452 C46.384948,13.3074401 45.2645636,12.7789844 44.2064543,13.0835187 L25.7327143,2.1907417 C25.7327143,2.1907417 25.7327143,2.17412419 25.7327143,2.16581544 C25.7327144,1.39204412 25.3171574,0.677049924 24.6425797,0.290164253 C23.968002,-0.0967214177 23.1368879,-0.0967214177 22.4623102,0.290164253 C21.7877325,0.677049924 21.3721756,1.39204412 21.3721756,2.16581544 C21.3721756,2.16581544 21.3721756,2.18797212 21.3721756,2.19905046 L2.93746854,13.1472191 C1.88467723,12.7578951 0.706533689,13.2280592 0.217480672,14.2326903 C-0.271572346,15.2373213 0.0890042851,16.4466337 1.04994635,17.0246379 L1.04994635,38.1177956 C0.0601734865,38.7341078 -0.264753656,40.0158229 0.313120285,41.0242968 C0.890994226,42.0327707 2.16631584,42.4096318 3.20512309,41.8788918 L21.5450358,52.6802725 C21.9054445,53.523877 22.7613409,54.0508365 23.6822419,53.9961104 C24.6031429,53.9413843 25.3896916,53.3168199 25.6462842,52.436549 L43.5930793,41.7791867 C44.2541983,42.22612 45.1085719,42.2776549 45.819272,41.9134683 C46.5299721,41.5492817 46.9829338,40.8278242 46.9995284,40.0336077 C47.0161231,39.2393911 46.5936874,38.4998845 45.8988117,38.1067173 L45.8988117,38.1261044 Z M25.0524257,50.2818121 C24.6264458,49.8773183 24.0532907,49.6621344 23.4644736,49.6856354 C22.8756566,49.7091364 22.3217279,49.9693047 21.9297893,50.4064434 L4.72740833,40.2669934 L13.9280335,39.6770719 C14.1680309,40.5459222 14.9250458,41.1760063 15.8282017,41.2586338 C16.7313576,41.3412612 17.5914893,40.8591256 17.9872014,40.0484347 C18.3829136,39.2377438 18.2313246,38.2682961 17.6067009,37.615043 C16.9820773,36.9617899 16.0152457,36.7615546 15.1798761,37.1124364 L3.63448559,16.7338315 C3.7554001,16.6207663 3.8629682,16.4943987 3.95511344,16.3571679 L42.8068441,39.142542 C42.7112531,39.3640996 42.6537643,39.6000201 42.6367719,39.8404774 L25.0524257,50.2818121 Z M23.552445,4.33163075 C23.926473,4.33230986 24.2943227,4.23690227 24.6202751,4.05467227 L42.2408662,14.4378457 L33.2939553,15.0610022 C33.0549544,14.2101264 32.3196939,13.588711 31.4359161,13.4906553 C30.5521383,13.3925995 29.6969786,13.8375566 29.2748856,14.6150837 C28.8527927,15.3926107 28.9483665,16.3468682 29.5164053,17.0265389 C30.0844441,17.7062096 31.0110961,17.9750674 31.8581002,17.7059557 L43.456464,38.2978187 C43.40442,38.3384392 43.3551642,38.3809062 43.3086964,38.4252196 L4.28410549,15.5456796 C4.32306645,15.3202225 4.32306645,15.0898188 4.28410549,14.8643617 L22.4790387,4.06298102 C22.8074299,4.24324226 23.1772751,4.3358063 23.552445,4.33163075 Z M33.3552928,15.9306519 L42.6339839,15.282569 C42.6746134,16.0112862 43.0824351,16.6705143 43.7185424,17.0357162 L43.7185424,36.9933442 L32.6192428,17.2877484 C33.0242497,16.940693 33.286297,16.4575417 33.3552928,15.9306519 Z M13.8639079,38.8101918 L4.24228446,39.4278093 C4.09073731,38.8776976 3.72712958,38.4090367 3.2302157,38.1233348 L3.2302157,17.7862737 L14.4494022,37.6109616 C14.1317163,37.9393026 13.9267689,38.3590831 13.8639079,38.8101918 Z" id="Shape"></path>
            </g>
        </g>
    </g>
</svg>