<svg xmlns="http://www.w3.org/2000/svg" width="158" height="30" viewBox="0 0 158 30">
    <g fill="#262626" fill-rule="evenodd">
        <path d="M9.327.782L9.295.91a5.363 5.363 0 0 1-.208.191 3.667 3.667 0 0 0-.29.288 2.694 2.694 0 0 0-.24.303.464.464 0 0 0-.096.24v5.94l.096.191.225.096a.805.805 0 0 0 .577-.367c.129-.202.241-.431.337-.687.097-.255.188-.516.273-.782.086-.266.193-.485.32-.655l.193-.064.16.064 1.477 1.47c.32.318.615.606.882.861.268.256.423.384.465.384.15 0 .295-.155.434-.463.139-.31.262-.703.369-1.182.107-.48.203-1.011.288-1.597.086-.585.166-1.15.241-1.692.075-.543.15-1.033.225-1.47.075-.436.144-.75.208-.942l.08-.16c.033-.063.08-.095.145-.095.192 0 .55.043 1.075.128.524.085 1.07.202 1.636.351.567.149 1.07.314 1.508.495.439.18.658.367.658.559 0 .064-.054.149-.16.255-.3.32-.589.676-.867 1.07a12.17 12.17 0 0 0-.77 1.246c-.235.436-.46.878-.674 1.325a72.19 72.19 0 0 1-.61 1.245c-.17.362-.416.868-.737 1.517-.321.65-.685 1.294-1.091 1.932-.407.64-.84 1.198-1.3 1.677-.46.48-.914.719-1.363.719-.214 0-.321-.096-.321-.288 0-.34.048-.676.144-1.006.096-.33.203-.654.321-.974.118-.32.225-.638.32-.958.097-.32.145-.66.145-1.022 0-.106-.021-.17-.064-.191l-.192-.096c-.172-.064-.45-.107-.835-.128a39.871 39.871 0 0 0-1.251-.048c-.45-.01-.882-.016-1.3-.016h-.946l-.225.096-.032.032-.096.223v3.481c0 .256.246.485.738.687.492.202 1.037.442 1.636.719a6.927 6.927 0 0 1 1.637 1.053c.492.426.738.98.738 1.661 0 .49-.134.889-.401 1.198-.268.308-.658.463-1.172.463-.492 0-.866-.112-1.123-.336a2.066 2.066 0 0 1-.577-.846 4.475 4.475 0 0 1-.257-1.086c-.043-.383-.09-.745-.144-1.085a3.566 3.566 0 0 0-.225-.847c-.096-.223-.273-.335-.53-.335-.063 0-.149.096-.256.287-.107.192-.16.32-.16.384v14.69c0 .17-.187.32-.562.447a7.688 7.688 0 0 1-1.251.303 9.8 9.8 0 0 1-1.316.128c-.417.01-.668-.037-.754-.144-.043-.085-.07-.314-.08-.686-.01-.373-.01-.772 0-1.198.01-.426.021-.835.032-1.23.01-.393.016-.675.016-.846.022-1.32.054-2.634.096-3.944.043-1.309.065-2.624.065-3.944 0-.191-.107-.287-.321-.287-.236 0-.53.208-.883.623-.353.415-.716.867-1.09 1.357-.375.49-.722.942-1.043 1.357-.321.415-.557.623-.706.623-.107 0-.16-.053-.16-.16 0-.085.031-.218.096-.399.064-.18.139-.373.224-.575.086-.202.177-.388.273-.559.096-.17.166-.308.208-.415a25.49 25.49 0 0 0 1.62-4.567 80.253 80.253 0 0 0 1.044-4.758c.042-.255.08-.522.112-.798.032-.277.102-.533.208-.767.043-.064.091-.144.145-.24a.56.56 0 0 0 .08-.27V.557c0-.213.107-.319.32-.319.75 0 1.493.043 2.23.128.739.085 1.482.18 2.23.287l.161.128zm20.92 8.942a3.467 3.467 0 0 1-.529.655 14.82 14.82 0 0 1-.722.67c-.257.224-.503.453-.738.687a5.116 5.116 0 0 0-.577.67 5.924 5.924 0 0 0-.482 1.006c-.15.394-.342.687-.577.879-.193-.022-.433-.325-.722-.91a22.902 22.902 0 0 1-.915-2.188 48.054 48.054 0 0 1-.946-2.874 64.72 64.72 0 0 1-.818-3.002 38.839 38.839 0 0 1-.546-2.54c-.128-.734-.16-1.24-.096-1.516l.096.096c.235.362.465.74.69 1.133.225.394.465.783.722 1.166.856 1.278 1.749 2.374 2.68 3.29.93.915 2.058 1.788 3.384 2.618l.097.16zM.216 8.35h3.208l.097.095-.097.128H.215l-.128-.128.128-.095zM12.92 29.428c-.021-.106-.139-.351-.353-.734-.214-.384-.46-.81-.738-1.278-.278-.468-.54-.92-.786-1.357-.246-.437-.401-.772-.465-1.006l.096-.096c.62 0 1.251-.037 1.893-.112a16.405 16.405 0 0 1 1.893-.111c.235 0 .417-.011.546-.032.128-.022.278-.128.449-.32.021-.021.043-.138.064-.351a41.273 41.273 0 0 1 .176-1.421c.033-.224.049-.367.049-.431.192-1.427.417-2.853.673-4.28a58.84 58.84 0 0 0 .61-4.279 12.825 12.825 0 0 1 .064-1.086c.022-.213.043-.41.064-.59a2.18 2.18 0 0 1 .065-.368c.085-.17.155-.26.208-.271.054-.011.166-.016.337-.016.193 0 .562.042 1.107.127a37.93 37.93 0 0 1 1.685.304c.577.117 1.09.245 1.54.383.449.138.673.272.673.4 0 .042-.037.095-.112.159a28.404 28.404 0 0 1-.578.463 2.615 2.615 0 0 0-.176.144 8.31 8.31 0 0 0-1.155 1.58 24.618 24.618 0 0 0-1.027 1.98c-.32.692-.62 1.38-.898 2.06a43.53 43.53 0 0 1-.802 1.853c-.171.404-.364.798-.578 1.181-.214.383-.438.756-.674 1.118a4.493 4.493 0 0 1-.385.575 3.63 3.63 0 0 0-.385.607c0 .02-.01.053-.032.095a.244.244 0 0 0-.032.096.241.241 0 0 0 .016.192c.032.064.091.096.177.096 1.198 0 2.39-.043 3.577-.128a33.26 33.26 0 0 0 3.546-.447c.043 0 .123-.016.24-.048l.353-.096a1.14 1.14 0 0 0 .305-.128c.086-.053.128-.111.128-.175 0-.213-.096-.511-.288-.895a16.758 16.758 0 0 0-.658-1.181 19.326 19.326 0 0 1-.658-1.166c-.192-.372-.289-.676-.289-.91 0-.213.097-.32.29-.32.748 0 1.529.277 2.341.831.813.554 1.562 1.23 2.247 2.028a12.19 12.19 0 0 1 1.7 2.57c.45.916.674 1.725.674 2.428 0 .298-.043.601-.128.91a2.691 2.691 0 0 1-.385.83 2.177 2.177 0 0 1-.642.607c-.257.16-.556.24-.899.24-.128 0-.3-.022-.513-.064a4.796 4.796 0 0 1-.642-.176 2.888 2.888 0 0 1-.577-.271c-.171-.107-.268-.224-.29-.352l-.865-3.832c-.043-.149-.14-.229-.29-.24a.87.87 0 0 0-.384.048c-.685.17-1.364.421-2.038.751-.673.33-1.342.644-2.005.942-.663.298-1.337.575-2.021.83-.685.256-1.37.5-2.054.735-.32.106-.647.218-.979.335-.331.117-.647.261-.946.431a5.474 5.474 0 0 0-.481.336c-.15.117-.3.229-.45.335l-.128-.032zm42.867-28.04c.107.107.326.288.658.544.331.255.679.527 1.043.814.363.287.69.559.978.814.29.256.433.415.433.48a.264.264 0 0 1-.128.239 3.502 3.502 0 0 1-.289.16 1.36 1.36 0 0 0-.288.191c-.086.075-.129.186-.129.335v7.218c0 .255-.15.452-.449.59-.3.14-.647.246-1.043.32a9.031 9.031 0 0 1-1.187.144c-.396.021-.68.032-.85.032-.15 0-.252-.064-.305-.192a2.28 2.28 0 0 1-.128-.431 2.732 2.732 0 0 0-.129-.447.3.3 0 0 0-.305-.208H40.515c-.043 0-.22.08-.53.24-.31.16-.652.34-1.026.543a284.2 284.2 0 0 0-1.059.575c-.331.18-.53.292-.594.335-.32.255-.352.426-.096.51.257.086.6.15 1.027.192.428.043.845.09 1.251.144.407.053.61.176.61.367 0 1.725-.037 3.433-.112 5.126a115.983 115.983 0 0 0-.113 5.126c0 .17.14.266.417.287.279.021.583.021.915 0 .332-.021.636-.032.914-.032s.418.064.418.192c0 .085-.172.245-.514.479-.342.234-.775.5-1.3.798-.523.298-1.101.612-1.732.942a58.15 58.15 0 0 1-1.813.91 23.92 23.92 0 0 1-1.556.687c-.46.181-.775.272-.947.272-.064 0-.107-.011-.128-.032-.021-.022-.123-.203-.305-.543s-.385-.73-.61-1.166a142.19 142.19 0 0 1-.625-1.23c-.193-.383-.32-.628-.385-.734a.42.42 0 0 1 .016-.255c.032-.086.102-.128.208-.128h3.177c.15 0 .225-.085.225-.256 0-1.852-.054-3.688-.16-5.509a93.904 93.904 0 0 1-.161-5.508c0-1.96-.016-3.913-.048-5.86a355.834 355.834 0 0 1-.048-5.86c0-.15.096-.224.288-.224.556 0 1.08.111 1.573.335a3.756 3.756 0 0 0 1.572.335c.385 0 .791-.149 1.219-.447a9.848 9.848 0 0 0 1.22-1.006c.384-.372.721-.708 1.01-1.006.289-.298.487-.447.594-.447.064 0 .267.133.61.4.341.266.705.564 1.09.894.385.33.727.644 1.027.942.3.298.45.468.45.51 0 .065-.097.118-.29.16a8.686 8.686 0 0 1-1.364.176c-.224.01-.379.016-.465.016-.128 0-.417.027-.866.08-.45.053-.925.112-1.428.175-.502.064-.957.134-1.363.208-.407.075-.631.122-.674.144-.236.149-.353.33-.353.543v6.834c0 .213.107.32.32.32h13.67c.213 0 .32-.107.32-.32V4.007c0-.212-.107-.319-.32-.319h-5.487c-.107 0-.16-.053-.16-.16 0-.106.053-.16.16-.16h5.262c.107 0 .251-.09.433-.27.182-.182.374-.395.578-.64.203-.244.411-.478.625-.702.214-.224.396-.367.546-.431l.16.064zm-15.273 6.42l.096-.096c.47-.064.877-.234 1.22-.511.342-.277.641-.564.898-.862.257-.298.476-.57.658-.815.182-.244.326-.367.433-.367.064 0 .225.112.481.335a96.556 96.556 0 0 1 1.765 1.58c.278.257.47.427.578.512l.032.128-.065.128-.224.095h-5.744l-.128-.127zm8.695-.096c.15 0 .444-.005.883-.016a56.24 56.24 0 0 1 2.647 0c.385.01.62.027.706.048-.064.128-.193.191-.385.191h-3.85l-.129-.127.128-.096zm-4.203 22.1c-.128 0-.278-.15-.45-.448a9.172 9.172 0 0 1-.496-1.022c-.16-.383-.295-.76-.401-1.133-.107-.373-.16-.623-.16-.75 0-.235.08-.368.24-.4.16-.032.331-.037.513-.016.182.021.353.032.514.032.16 0 .24-.085.24-.256v-11.4c0-.214.107-.32.321-.32.171 0 .412.01.722.032.31.021.626.048.946.08.321.032.632.074.931.128.3.053.524.111.674.175.085.043.144.075.176.096.032.021.048.085.048.192 0 .17-.026.34-.08.51-.053.17-.08.341-.08.512v9.9c0 .212.107.319.32.319h4.076c.064 0 .133.01.208.032.075.021.113.074.113.16 0 .149-.16.314-.482.495-.32.18-.69.356-1.107.526-.417.17-.818.32-1.203.448a23.06 23.06 0 0 1-.802.255c-.599.17-1.198.346-1.797.527-.599.18-1.176.4-1.732.655a4.845 4.845 0 0 0-.626.335c-.182.117-.39.229-.626.335zm16.075-5.238c.107.064.155.128.145.191a.737.737 0 0 0 .016.256c.043.447.155.953.337 1.517.181.564.294 1.091.337 1.58.042.49-.06.906-.305 1.246-.246.34-.776.511-1.589.511-.984 0-1.823-.25-2.518-.75-.695-.5-1.273-1.155-1.733-1.964a11.341 11.341 0 0 1-1.09-2.747 25.574 25.574 0 0 1-.61-3.098 39.358 39.358 0 0 1-.29-3.001c-.053-.959-.1-1.789-.144-2.491 0-.064-.005-.187-.016-.368a9.763 9.763 0 0 1-.016-.575c0-.202.016-.377.048-.526.032-.15.102-.224.209-.224.15 0 .46.01.93.032.471.021.952.058 1.444.112.492.053.93.127 1.316.223.385.096.577.208.577.336 0 .127-.085.276-.256.447-.171.17-.257.468-.257.894 0 .277.005.697.016 1.261.01.564.043 1.187.096 1.869.054.68.129 1.383.225 2.107.096.724.235 1.379.417 1.964.182.586.406 1.07.674 1.453.267.384.593.575.978.575.15 0 .337-.112.562-.335l.497-.495zm-11.55-8.846c.149-.15.416-.187.801-.112.385.074.77.229 1.156.463.385.234.727.516 1.026.846.3.33.45.666.45 1.006 0 .32-.054.57-.16.75a.961.961 0 0 1-.45.4 1.77 1.77 0 0 1-.642.144c-.235.01-.481.016-.738.016a.917.917 0 0 1-.545-.16c-.043-.021-.113-.192-.209-.511-.096-.32-.198-.676-.305-1.07a20.916 20.916 0 0 1-.272-1.118c-.075-.35-.113-.57-.113-.654zm-6.77 3.513c-.3 0-.546-.08-.739-.24a2.252 2.252 0 0 1-.497-.59 3.658 3.658 0 0 1-.337-.751 5.969 5.969 0 0 1-.193-.75c-.042-.171-.08-.33-.112-.48a2.273 2.273 0 0 1-.048-.479c0-.085.064-.133.192-.143a3.89 3.89 0 0 1 .257-.016c.278 0 .6.048.963.143.363.096.706.24 1.026.431.321.192.589.426.803.703.214.277.32.586.32.926 0 .447-.176.767-.529.958a2.289 2.289 0 0 1-1.107.288zm7.924 4.31c-.021 0-.08-.148-.176-.446l-.32-.99a88.23 88.23 0 0 1-.322-1.006c-.096-.309-.144-.495-.144-.559 0-.213.096-.32.289-.32.32 0 .668.043 1.042.128.375.086.717.213 1.027.384.31.17.572.393.786.67.214.277.321.607.321.99 0 .32-.048.564-.144.735a.927.927 0 0 1-.401.383 1.653 1.653 0 0 1-.578.16c-.214.021-.45.032-.706.032a3.02 3.02 0 0 1-.353-.016.808.808 0 0 1-.32-.144zm-8.021.352c-.15 0-.31-.005-.481-.016a.898.898 0 0 1-.45-.143c-.064-.043-.117-.139-.16-.288a4.647 4.647 0 0 1-.112-.51 59.318 59.318 0 0 0-.097-.56 6.383 6.383 0 0 0-.08-.399 53.096 53.096 0 0 1-.176-.447 2.956 2.956 0 0 1-.16-.559 1.015 1.015 0 0 1 .015-.479c.043-.138.16-.207.353-.207.321 0 .647.058.979.175.331.117.636.282.914.495.278.213.508.463.69.75.182.288.273.602.273.943 0 .404-.16.713-.481.926-.321.213-.663.32-1.027.32zM87.938 9.564c-.363-.362-.732-.74-1.107-1.134a7.138 7.138 0 0 1-.946-1.229.935.935 0 0 1-.08-.096c-.032-.042-.038-.074-.016-.096.064-.127.288-.186.673-.175.385.01.845.085 1.38.223.535.139 1.102.34 1.7.607.6.266 1.156.59 1.67.974.513.383.935.83 1.267 1.341.331.511.497 1.076.497 1.693 0 .51-.15 1.011-.45 1.5-.299.49-.737.735-1.315.735-.17 0-.412-.063-.722-.191s-.518-.256-.625-.383a1.097 1.097 0 0 1-.193-.368 2.595 2.595 0 0 0-.16-.399 14.594 14.594 0 0 0-.562-1.07 8.176 8.176 0 0 0-.658-.974c-.15-.064-.513-.032-1.09.096-.578.128-1.204.287-1.878.48a46.59 46.59 0 0 0-1.925.59c-.61.202-1.032.335-1.267.4-.663.19-1.321.382-1.973.574-.653.192-1.321.373-2.006.543-.3.085-.62.149-.962.191a2.642 2.642 0 0 0-.93.288 3.347 3.347 0 0 0-.53.383c-.097.085-.188.16-.273.224-.086.064-.14.095-.16.095-.129 0-.247-.106-.353-.319a4.248 4.248 0 0 1-.29-.798c-.085-.32-.176-.67-.272-1.054a10.348 10.348 0 0 0-.32-1.054 3.106 3.106 0 0 0-.418-.798c-.16-.213-.358-.32-.594-.32-.107 0-.208.096-.304.288l-.209.415c-.235.51-.497 1.245-.786 2.203-.289.958-.562 1.97-.818 3.034a49.31 49.31 0 0 0-.642 3.066c-.171.98-.257 1.735-.257 2.267 0 .511.07 1.001.209 1.47.139.468.294.936.465 1.405.171.468.326.936.465 1.405.14.468.209.958.209 1.469 0 .851-.251 1.533-.754 2.044-.503.51-1.182.766-2.038.766-.47 0-.92-.085-1.347-.255-.428-.17-.642-.543-.642-1.118 0-.703.043-1.41.128-2.124.086-.713.129-1.42.129-2.123 0-.724-.064-1.262-.193-1.613-.128-.352-.283-.618-.465-.799a4.516 4.516 0 0 0-.513-.447c-.16-.117-.273-.303-.337-.559.064-.063.17-.111.32-.143.15-.032.321-.08.514-.144.193-.064.39-.16.594-.287.203-.128.369-.33.497-.607l5.037-9.996c.043-.085.102-.218.177-.4.075-.18.176-.27.305-.27.064 0 .144.063.24.191.097.128.166.213.209.255.192.213.417.352.674.416.256.063.524.095.802.095h.706c.342 0 .695-.005 1.059-.016.363-.01.695-.026.994-.047.3-.022.492-.064.578-.128.021-.021.118-.256.289-.703a85.2 85.2 0 0 0 .545-1.469c.193-.532.364-1.032.514-1.5.15-.47.224-.746.224-.831 0-.085-.053-.15-.16-.192a3.401 3.401 0 0 1-.225-.096c-.684-.149-1.428-.175-2.23-.08a18.89 18.89 0 0 1-2.23.144h-.289c-.15 0-.3-.005-.449-.016a2.108 2.108 0 0 1-.401-.063c-.118-.032-.176-.08-.176-.144 0-.107.053-.16.16-.16h6.578c.235 0 .358-.229.369-.686.01-.458-.006-.959-.048-1.501a19.21 19.21 0 0 1-.065-1.501c0-.458.129-.687.385-.687.728 0 1.444.064 2.15.192.706.127 1.423.202 2.15.223l.096.096-.064.192-.481.479-.097.223c0 .107-.01.314-.032.623-.021.309-.032.628-.032.958 0 .33.027.623.08.878.054.256.156.383.305.383h3.08c.15 0 .327-.111.53-.335a7.76 7.76 0 0 0 .626-.798 15.48 15.48 0 0 0 .93-1.517l.193-.096c.192.021.534.202 1.026.543.492.34.952.713 1.38 1.118.428.404.744.777.947 1.117.203.341.123.511-.24.511h-8.857c-.085 0-.17.043-.256.128a36.28 36.28 0 0 0-2.134 2.315 24.564 24.564 0 0 1-2.198 2.284l-.064.16.096.095a54.561 54.561 0 0 0 3.963-.08 70.056 70.056 0 0 1 3.962-.111l.097-.128-.065-.16zM66.633 1.165c0-.213.086-.32.257-.32.535 0 1.134.049 1.797.145a7.314 7.314 0 0 1 1.877.526 4.24 4.24 0 0 1 1.476 1.038c.395.437.593.996.593 1.677 0 .234-.075.447-.224.639-.15.191-.337.356-.562.495-.224.138-.46.25-.706.335a2.04 2.04 0 0 1-.657.128c-.257 0-.605-.197-1.043-.591a12.125 12.125 0 0 1-1.284-1.357 11.547 11.547 0 0 1-1.075-1.55c-.299-.52-.449-.91-.449-1.165zm-2.021 6.93c.449 0 .962.043 1.54.128.577.085 1.128.24 1.652.463a4.06 4.06 0 0 1 1.332.894c.364.373.545.846.545 1.421 0 .554-.197 1-.593 1.342-.396.34-.861.51-1.396.51-.47 0-.877-.164-1.22-.494a4.648 4.648 0 0 1-.882-1.198 9.948 9.948 0 0 1-.625-1.47c-.171-.51-.321-.936-.45-1.276a.443.443 0 0 1-.032-.192l.129-.128zm29.166 16.958c.3.277.519.532.658.766.139.235.208.554.208.958 0 .746-.219 1.294-.657 1.645-.439.351-.968.586-1.589.703a9.019 9.019 0 0 1-1.957.143 57.94 57.94 0 0 0-1.765-.032h-.673a.79.79 0 0 1-.498-.191 2.077 2.077 0 0 1-.69-1.006 1.782 1.782 0 0 1-.096-.527c0-2.193-.032-4.38-.096-6.563-.064-2.182-.096-4.37-.096-6.563 0-.212.107-.319.32-.319.214 0 .498.01.85.032.354.021.717.048 1.092.08.374.032.732.07 1.075.112.342.042.62.095.834.16.064.02.128.047.192.08.065.031.097.09.097.175 0 .149-.07.282-.209.399-.139.117-.209.24-.209.367v9.485c0 .107.097.208.29.303.192.096.342.144.448.144.407 0 .717-.191.931-.575.214-.383.385-.798.513-1.245.129-.447.246-.862.353-1.246.107-.383.246-.574.417-.574.043 0 .08.037.113.111a.483.483 0 0 1 .048.176c.085.468.107.931.064 1.39-.043.457-.064.92-.064 1.388l.096.224zm-12.93 3.449a.371.371 0 0 0-.065-.096c-.021-.021-.032-.053-.032-.096V16.111c0-.192-.043-.373-.128-.543a1.193 1.193 0 0 1-.129-.543c0-.213.107-.32.321-.32.15 0 .433.011.85.033.418.021.846.053 1.284.096.439.042.829.1 1.171.175.342.075.514.176.514.304 0 .106-.06.207-.177.303-.118.096-.176.208-.176.335v11.784c0 .213-.14.378-.418.495a3.957 3.957 0 0 1-.962.256 9.369 9.369 0 0 1-1.075.096c-.353.01-.604.016-.754.016l-.225-.096zm-1.284-13.317a.38.38 0 0 1 .16.048c.065.032.097.069.097.112 0 .127-.08.212-.241.255-.16.043-.273.17-.337.383-.043.107-.059.261-.048.463.01.203.005.357-.016.463-.043.384-.075.761-.096 1.134-.022.373-.054.75-.097 1.134-.17 1.916-.604 3.63-1.3 5.141-.694 1.512-1.812 2.864-3.352 4.056a10.88 10.88 0 0 0-.481.367c-.257.203-.53.389-.819.56-.288.17-.545.281-.77.335-.224.053-.337-.038-.337-.272 0-.17.118-.452.353-.846.236-.394.508-.825.819-1.293.31-.469.604-.927.882-1.374.278-.447.46-.809.545-1.086.364-1.085.61-2.262.738-3.528a57.08 57.08 0 0 0 .257-3.625c.021-.426.021-.846 0-1.262a5.06 5.06 0 0 1 .096-1.261.71.71 0 0 1 .097-.255c.042-.064.128-.086.256-.064l3.594.415zm17.23-9.709l.096-.16c1.776-1 3.53-2.107 5.263-3.32.17-.128.369-.277.593-.448.225-.17.46-.346.706-.527.246-.18.487-.34.722-.479a2.26 2.26 0 0 1 .642-.271c.128.043.4.224.818.543a25.332 25.332 0 0 1 2.487 2.22c.342.35.513.58.513.686 0 .106-.048.176-.144.208a.867.867 0 0 1-.273.047c-.235.022-.53.043-.882.064-.353.022-.706.054-1.06.096a4.843 4.843 0 0 0-.994.224c-.31.106-.54.266-.69.479a.212.212 0 0 1-.048.127.212.212 0 0 0-.048.128v4.471c0 .17.048.293.144.367.097.075.209.038.337-.111.278-.298.535-.618.77-.958.236-.341.439-.692.61-1.054l.16-.096c.129.043.332.18.61.415a9.802 9.802 0 0 1 1.556 1.709c.203.287.305.495.305.622 0 .043-.032.075-.096.096a.53.53 0 0 1-.16.032h-3.851c-.171 0-.3.107-.385.32a1.238 1.238 0 0 0-.064.447c0 .191.005.399.016.622.01.224.032.431.064.623s.08.33.144.415c.022.043.204.165.546.367.342.203.722.421 1.139.655.417.234.813.453 1.187.655.374.202.615.335.722.399.107.064.23.128.369.192.139.064.262.138.369.223.128.085.192.192.192.32 0 .383.022.777.065 1.181.042.405.026.772-.048 1.102a1.48 1.48 0 0 1-.482.814c-.246.213-.658.32-1.235.32-.62 0-1.038-.144-1.251-.431-.214-.288-.348-.645-.402-1.07a13.186 13.186 0 0 1-.096-1.342 2.749 2.749 0 0 0-.305-1.245 14.362 14.362 0 0 0-.176-.256 1.818 1.818 0 0 0-.177-.223c-.107-.085-.213-.101-.32-.048-.107.053-.16.154-.16.303v13.86c0 .256-.156.458-.466.607a4.71 4.71 0 0 1-1.075.351 7.943 7.943 0 0 1-1.203.16c-.396.021-.69.032-.883.032-.214 0-.32-.106-.32-.32V19.018c0-.17-.075-.255-.225-.255-.364 0-.7.197-1.01.59-.31.394-.621.83-.931 1.31-.31.479-.626.915-.947 1.31-.32.393-.674.59-1.059.59-.107 0-.16-.064-.16-.192 0-.042.064-.207.192-.495a125.71 125.71 0 0 1 .899-1.964 26.77 26.77 0 0 0 1.396-3.657c.31-1.032.582-2.07.818-3.113.107-.426.187-.857.24-1.293a5.13 5.13 0 0 1 .337-1.294l.145-.287a.706.706 0 0 0 .08-.32V5.732c0-.213-.107-.32-.32-.32-.536 0-1.065.033-1.59.096-.523.064-1.053.096-1.587.096l-.129-.128zm13.156-3.928c.15-.02.406.043.77.192.363.149.754.32 1.17.511.418.192.819.373 1.204.543.385.17.674.255.866.255h5.295c.128 0 .288-.085.48-.255.193-.17.391-.367.594-.59.204-.224.412-.443.626-.656.214-.213.396-.35.546-.415.042 0 .106.022.192.064.107.064.332.224.674.48.342.255.695.526 1.059.813.363.288.69.56.978.815.29.255.434.415.434.479s-.049.144-.145.24l-.305.303a8.398 8.398 0 0 0-.305.32c-.096.106-.144.201-.144.287v6.195c0 .298-.102.532-.305.703-.203.17-.444.303-.722.399a3.93 3.93 0 0 1-.866.191c-.3.032-.556.048-.77.048-.214 0-.444-.005-.69-.016-.246-.01-.422-.133-.53-.367a5.503 5.503 0 0 1-.144-.575c-.053-.255-.176-.383-.369-.383h-5.422c-.129 0-.278.101-.45.303a6.923 6.923 0 0 1-.69.687 4.365 4.365 0 0 1-1.106.687c-.45.202-1.027.303-1.733.303-.214 0-.32-.106-.32-.32V1.645l.128-.096zm3.722 8.847c0 .212.106.319.32.319h5.583c.214 0 .321-.107.321-.32v-6.61c0-.213-.107-.32-.32-.32h-5.584c-.214 0-.32.107-.32.32v6.61zm-17.199-.128h2.984l.097.096-.097.127h-2.984l-.128-.127.128-.096zm26.6 15.648c.107 0 .289.08.545.24.257.16.54.356.85.59.31.235.615.485.915.751.3.266.55.51.754.734.203.224.332.41.385.56.054.148-.027.223-.24.223h-19.284c-.107 0-.16-.053-.16-.16 0-.106.053-.16.16-.16h7.219c.214 0 .32-.106.32-.319V16.143c0-.15-.095-.25-.288-.303a2.834 2.834 0 0 0-.738-.08c-.3 0-.63.016-.995.048-.363.032-.71.053-1.042.063a6 6 0 0 1-.899-.031c-.267-.032-.454-.123-.561-.272 0-.043.053-.064.16-.064h10.14c.256 0 .497-.144.721-.43.225-.288.439-.608.642-.959s.385-.67.545-.958c.16-.287.305-.431.434-.431.021 0 .075.037.16.112.086.074.14.122.16.143.086.064.279.224.578.48a51.225 51.225 0 0 1 1.797 1.612c.257.245.396.389.417.431.064.213-.021.32-.257.32h-6.385c-.214 0-.32.106-.32.319v4.982a.452.452 0 0 0 .384.24c.171.01.332.015.482.015.385 0 .706-.117.962-.351.257-.234.47-.495.642-.782.171-.288.331-.549.481-.783.15-.234.321-.362.514-.383.085 0 .288.117.61.351.32.234.652.5.994.799.342.298.647.59.914.878.268.287.401.474.401.559 0 .106-.042.17-.128.191a1.06 1.06 0 0 1-.257.032h-5.679c-.214 0-.32.107-.32.32v5.972c0 .127.085.218.256.271.171.053.369.09.594.112.224.021.438.032.641.032h.433c.15 0 .327-.112.53-.336.203-.223.412-.484.626-.782.213-.298.411-.59.593-.878a6.27 6.27 0 0 1 .433-.623l.16-.064zm-9.241-4.183c-.021 0-.267.016-.738.048a145.063 145.063 0 0 1-3.915.208c-.128-.043-.192-.123-.192-.24 0-.118.064-.176.192-.176h2.407c.535 0 1.016.005 1.444.016.428.01.674.027.738.048l.064.096zm38.247-19.417l1.989-1.98.225-.064c.17.043.443.192.818.447.374.256.748.543 1.123.862.374.32.706.644.994.974.29.33.434.57.434.719 0 .085-.054.154-.16.207-.108.054-.22.112-.338.176-.117.064-.23.144-.337.24-.107.095-.16.24-.16.43v24.048c0 .277-.15.506-.45.687-.299.18-.652.324-1.058.43a8.164 8.164 0 0 1-1.22.224 9.66 9.66 0 0 1-.93.064c-.15 0-.246-.1-.289-.303a3.422 3.422 0 0 1-.064-.703v-.766c0-.245-.01-.41-.032-.495a1.152 1.152 0 0 0-.144-.224.338.338 0 0 1-.08-.223c0-.107.032-.213.096-.32a.668.668 0 0 0 .096-.35c0-.703-.032-1.411-.096-2.125a23.689 23.689 0 0 1-.096-2.123c0-2.13.016-4.253.048-6.371.032-2.119.07-4.242.112-6.371a138.573 138.573 0 0 0 .064-4.216c0-.298.01-.601.032-.91.022-.309.01-.612-.032-.91a.513.513 0 0 0-.064-.224l-.225-.096h-18c-.214 0-.32.107-.32.32v23.185c0 .213.106.32.32.32h17.262c.171 0 .278.084.321.255-.043.042-.085.064-.128.064H134.4c-.086 0-.177.069-.274.207a3.335 3.335 0 0 0-.272.48c-.086.18-.16.361-.225.542a1.876 1.876 0 0 1-.16.367 1.6 1.6 0 0 1-.61.64c-.257.148-.53.255-.818.318a4.936 4.936 0 0 1-.899.112c-.31.01-.604.016-.882.016-.214 0-.32-.106-.32-.32a508.688 508.688 0 0 0-.065-8.11c-.043-2.854-.07-5.69-.08-8.512-.01-2.82-.016-5.658-.016-8.51 0-.575-.01-1.155-.032-1.74a47.67 47.67 0 0 1-.032-1.741c0-.192.107-.288.32-.288.086 0 .327.09.722.272.396.18.83.383 1.3.606.47.224.92.426 1.348.607.427.181.716.272.866.272h17.583l.225-.096z"/>
        <path d="M139.93 4.355c.122 0 .314.03.576.09.263.061 1.035.137 1.324.228.29.091.569.182.838.273l.606.205c.094.03.141.083.141.159 0 .06-.027.121-.08.182-.23.303-.472.61-.727.92-.256.312-.458.649-.606 1.013a1.26 1.26 0 0 0-.081.227 2.4 2.4 0 0 1-.04.16.598.598 0 0 1-.071.147 3.919 3.919 0 0 1-.152.216 8.007 8.007 0 0 1-.616.648c-.303.296-.653.626-1.05.99-.397.363-.818.739-1.262 1.125-.444.387-.865.736-1.262 1.046-.398.311-.754.569-1.07.774-.317.204-1.032.307-1.153.307-.094 0-.118-.042-.07-.126.046-.083.083-.14.11-.17.149-.212.297-.41.445-.591.148-.182.296-.38.444-.592.498-.682.973-1.387 1.424-2.115.45-.727.831-1.5 1.141-2.32.04-.09.114-.287.222-.59.108-.304.222-.618.343-.944.122-.326.243-.618.364-.876.121-.257.209-.386.263-.386zM145.31 13.069c0 .12.105.232.318.337.213.105.482.206.807.304.326.097.681.19 1.067.28.385.09.757.17 1.116.237a33.362 33.362 0 0 0 1.575.259c.305.045.618.09.937.134.319.045.63.135.936.27a.122.122 0 0 0 .06.034c.027.007.04.026.04.056 0 .06-.02.098-.06.113a.247.247 0 0 0-.1.067 2.294 2.294 0 0 0-.557.573 5.187 5.187 0 0 0-.39.686l-.338.72c-.113.24-.25.464-.409.674-.053.06-.1.09-.14.09-.185 0-.418-.06-.697-.18-.279-.12-.511-.217-.698-.292a28.008 28.008 0 0 1-1.913-.832c-.625-.3-1.236-.637-1.834-1.012a2.211 2.211 0 0 1-.319-.202 20.726 20.726 0 0 0-.917-.618c-.133-.083-.22-.124-.259-.124h-.19a.861.861 0 0 0-.189.022 2 2 0 0 0-.388.17c-.153.082-.316.175-.489.28-.173.105-.339.21-.498.315-.16.105-.293.187-.399.247-.478.255-.983.51-1.515.765-.531.255-1.076.48-1.634.674-.558.195-1.12.353-1.685.472a7.91 7.91 0 0 1-1.644.18.818.818 0 0 1-.13-.01.179.179 0 0 1-.11-.057c.187-.15.43-.296.728-.439.3-.142.562-.273.788-.393.146-.075.392-.206.737-.394.346-.187.734-.4 1.166-.64.432-.24.877-.499 1.336-.776.458-.277.88-.547 1.266-.81.385-.262.7-.505.946-.73.246-.225.37-.413.37-.562 0-.09-.094-.281-.28-.574-.186-.292-.392-.61-.618-.955-.226-.345-.55-1.029-.55-1.209 0-.075.04-.112.12-.112.079.015.606.313.879.59.272.277.538.532.797.764.26.233.455.349.588.349.093 0 .233-.083.419-.247.186-.165.388-.375.608-.63.219-.255.445-.54.677-.854.233-.315.445-.619.638-.911.193-.292.349-.558.469-.798.062-.125.108-.234.138-.326.027-.085.021-.155-.019-.17a.294.294 0 0 0-.1-.022h-2.688c-.067 0-.1-.15-.1-.224 0-.075.033-.224.1-.224h2.47c.079 0 .205.021.378-.159.173-.18.355-.374.548-.584l.538-.585c.166-.18.283-.27.35-.27h.139l.14.068c.066.075.212.236.438.483.226.248.458.506.697.776.24.27.456.52.648.753.193.233.29.371.29.416 0 .06-.034.128-.1.203a8.24 8.24 0 0 1-.708.708 8.24 8.24 0 0 0-.708.708 72.899 72.899 0 0 0-1.335 1.597 8.507 8.507 0 0 1-1.495 1.439l-.06.112z"/>
        <path d="M140.498 17.153c.053-.074.157-.126.314-.156s.33-.048.519-.056c.19-.007.369-.007.539 0 .17.008.3.011.391.011.327 0 .7.023 1.117.067.418.045.81.145 1.175.302.366.156.673.383.921.68.248.299.372.7.372 1.207 0 .387-.108 1.208-.323 1.364a1.282 1.282 0 0 1-.774.234c-.052 0-.186-.063-.401-.19-.216-.126-.47-.29-.764-.49a32.528 32.528 0 0 1-.94-.67c-.334-.246-.647-.702-.94-.925-.295-.223-.546-.587-.755-.758-.209-.171-.34-.456-.392-.53a.175.175 0 0 1-.03-.045.175.175 0 0 0-.029-.045zM138.068 21.033l.06-.069c.325-.06.79-.107 1.398-.137.608-.03 1.27-.027 1.985.011a22.09 22.09 0 0 1 2.188.229c.743.114 1.418.29 2.026.526.607.237 1.104.542 1.488.915.385.374.578 1.398.578 1.947 0 .443-.135.752-.405.927-.27.175-.581.263-.932.263h-.162a.47.47 0 0 1-.162-.023 2.873 2.873 0 0 1-.426-.217 5.991 5.991 0 0 0-.425-.24 99.674 99.674 0 0 0-.84-.492c-.278-.16-.558-.317-.841-.47a39.414 39.414 0 0 0-2.705-1.35c-.911-.411-1.833-1.363-2.765-1.729l-.06-.091z"/>
    </g>
</svg>
