<svg xmlns="http://www.w3.org/2000/svg" width="219" height="239" viewBox="0 0 219 239">
    <g fill="none" fill-rule="evenodd">
        <path fill="#BFE2EA" d="M179.996 24.594C163.068-13.663 55.444-6.66 22.329 43.003-10.786 92.666 27.06 203 60.985 203c33.925 0 33.925-74.494 47.913-96.371 13.988-21.877 88.025-43.778 71.098-82.035z"/>
        <path fill="#5684EC" d="M215.193 133.074c-9.594 17.972-26.405 4.427-48.017-14.374-21.613-18.8-49.016-37.362-39.421-55.334 9.594-17.972 44.064-15.676 65.677 3.124 21.613 18.801 31.356 48.612 21.761 66.584z" opacity=".5"/>
        <path fill="#FF73C6" fill-opacity=".7" d="M28.758 188.217C15.085 188.217 0 175.124 0 158.44s15.085-29.776 28.758-29.776c13.674 0 18.759 19.093 18.759 32.776 0 13.683-5.085 26.776-18.759 26.776z"/>
        <g>
            <path fill="#B28B67" d="M138.599 84.928c2.492-2.885 4.178-6.42 3.896-10.381-.812-11.414-16.92-8.903-20.054-3.142-3.133 5.76-2.761 20.373 1.289 21.402 1.615.41 5.055-.595 8.557-2.677l-2.198 15.337h12.978l-4.468-20.539z"/>
            <path fill="#191847" d="M139.596 87.497c1.629-7.147 6.27-12.019 5.56-15.213-.472-2.13-1.731-3.454-3.777-3.974-1.058-4.222-4.471-6.018-10.239-5.387-8.651.946-13.931 4.49-11.651 12.287 2.096 0 4.627-.748 8.126.533 1.11.406 1.904 1.667 2.382 3.781h1.581c1.535-2.509 3.048-3.431 4.54-2.766 1.491.665 1.83 2.28 1.017 4.847l.779 5.892h1.682z"/>
            <path fill="#C5CFD6" d="M166.601 172.664H125.4L120 238.136h61.333z"/>
            <path fill="#000" fill-opacity=".1" d="M166.601 172.664H153.93l-7.584 65.472h34.988z"/>
            <path fill="#B28B67" d="M78.425 161.334c-4.393-2.638-11.763.751-11.758 4.524.015 11.287 10.316 64.486 10.854 67.85.538 3.362 6.3 4.25 6.635.01.534-6.747 1.526-30.103.533-40.914-.41-4.463-.85-8.713-1.285-12.504 5.406 9.761 13.765 23.738 25.08 41.929l6.142-2.807c-4.823-15.89-8.778-27.11-11.865-33.656-5.285-11.209-10.241-20.808-12.327-24.19-3.28-5.318-8.992-3.462-12.01-.242z"/>
            <path fill="#1F28CF" d="M114.187 210.597l-21.082-49.94c-5.05-8.124-19.21 1.653-17.487 6.365 3.91 10.697 23.795 45.33 24.96 48.517l13.609-4.942z"/>
            <path fill="#E4E4E4" d="M114.967 215.918c1.457 1.138 2.392 2.065 2.805 2.78.473.82 1.021 2.1 1.643 3.838l-26.865 15.51c-1.97-1.8-2.254-3.222-.85-4.266a179.563 179.563 0 0 0 3.473-2.64l9.517-12.654a.4.4 0 0 1 .558-.08l1.993 1.482c1.75-.184 3.061-.527 3.932-1.03.756-.436 1.64-1.361 2.65-2.775a.8.8 0 0 1 1.144-.165zM85.344 230.509c.693 1.714 1.04 2.984 1.04 3.81 0 .947-.166 2.329-.496 4.145H54.867c-.806-2.544-.341-3.917 1.396-4.12 1.737-.203 3.18-.386 4.328-.55l14.569-6.2a.4.4 0 0 1 .524.21l.985 2.28c1.607.716 2.914 1.074 3.92 1.074.872 0 2.1-.36 3.683-1.078a.8.8 0 0 1 1.072.429z"/>
            <path fill="#2B44FF" d="M65.19 169.695c0 14.169 6.728 47.22 6.732 50.34l14.478.01c-2.12-29.49-2.87-44.395-2.254-44.712.924-.477 37.894 3.69 48.981 3.69 15.989 0 22.603-10.082 23.14-28.76h-31.673c-6.449.69-40.087 7.476-52.58 9.808-5.347.998-6.825 5.72-6.825 9.624z"/>
            <g>
                <path fill="#B28B67" d="M101.406 95.214l-20.364-6.068c-3.799-2.936-7.382-5.082-10.75-6.44-.98-.182-2.6-.076-.575 2.206 2.027 2.281 4.055 4.772 3.476 5.729-.578.956-2.686.235-3.296 1.75-.407 1.01 3.085 1.735 10.476 2.171l15.834 9.25 5.199-8.598zm1.8 35.642l-17.138 12.492c-4.648 1.245-8.531 2.794-11.65 4.647-.737.667-1.627 2.016 1.428 1.783 3.055-.233 6.28-.342 6.7.692.422 1.035-1.426 2.272-.574 3.667.568.931 3.252-1.402 8.051-6.999l16.97-6.986-3.788-9.296z"/>
                <path fill="#2026A2" d="M129.824 97.212c-9.332 17.275-22.827 30.517-42.392 44.282l7.408 8.292c21.844-8.059 33.373-12.92 39.035-29.242 1.421-4.096 2.414-17.154 3.266-24.024l-7.317.692z"/>
                <path fill="#F2F2F2" d="M155.914 154.766h-41.369c9.37-28.37 14.158-47.842 14.36-58.415.011-.54 1.014-1.49 1.458-1.365 3.244.91 6.716.57 10.415-1.02 9.808 15.658 13.199 34.936 15.136 60.8z"/>
                <path fill="#1F28CF" d="M137.248 93.991c-11.858.097-31.097 2.246-53.285-4.825l-2.19 10.866c16.769 10.706 33.75 19 48.629 17.822-6.462 27.513-6.164 50.035 8.1 50.035h22.058c3.504-23.372-5.704-55.777-14.24-72.122-.325-.624-1.02-1.801-2.654-1.801h-6.41l-.008.025z"/>
            </g>
        </g>
    </g>
</svg>
